<svg width="32" height="32" viewBox="0 0 32 32" fill="none" xmlns="http://www.w3.org/2000/svg">
<path d="M27 16C27 19.2 25.6 22.1 23.5 24.1C21.5 25.9 18.9 27 16 27C13.1 27 10.5 25.9 8.5 24.1C6.4 22.1 5 19.2 5 16C5 9.9 9.9 5 16 5C22.1 5 27 9.9 27 16Z" stroke="#231F20" stroke-width="2" stroke-miterlimit="10" stroke-linejoin="round"/>
<path d="M16 15C17.6569 15 19 13.6569 19 12C19 10.3431 17.6569 9 16 9C14.3431 9 13 10.3431 13 12C13 13.6569 14.3431 15 16 15Z" stroke="#231F20" stroke-width="2" stroke-miterlimit="10" stroke-linejoin="round"/>
<path d="M23.5 24.1C21.5 25.9 18.9 27 16 27C13.1 27 10.5 25.9 8.5 24.1C9.7 21.1 12.6 19 16 19C19.4 19 22.3 21.1 23.5 24.1Z" stroke="#231F20" stroke-width="2" stroke-miterlimit="10" stroke-linejoin="round"/>
</svg>
