<svg width="32" height="32" viewBox="0 0 32 32" fill="none" xmlns="http://www.w3.org/2000/svg">
<path d="M9.57996 26.14L10.1157 25.2956C9.86182 25.1346 9.54896 25.0963 9.26373 25.1913L9.57996 26.14ZM4 28L3.05132 27.6838C2.93154 28.0431 3.02506 28.4393 3.29289 28.7071C3.56073 28.9749 3.95689 29.0685 4.31623 28.9487L4 28ZM5.85999 22.42L6.80867 22.7363C6.90374 22.451 6.86544 22.1382 6.70437 21.8843L5.85999 22.42ZM16 29C23.1797 29 29 23.1797 29 16H27C27 22.0751 22.0751 27 16 27V29ZM9.04422 26.9844C11.0562 28.2609 13.4433 29 16 29V27C13.8339 27 11.8168 26.3749 10.1157 25.2956L9.04422 26.9844ZM9.26373 25.1913L3.68377 27.0513L4.31623 28.9487L9.89619 27.0887L9.26373 25.1913ZM4.94868 28.3162L6.80867 22.7363L4.9113 22.1038L3.05132 27.6838L4.94868 28.3162ZM3 16C3 18.5567 3.73907 20.9438 5.0156 22.9558L6.70437 21.8843C5.6251 20.1832 5 18.1661 5 16H3ZM16 3C8.8203 3 3 8.8203 3 16H5C5 9.92487 9.92487 5 16 5V3ZM29 16C29 8.8203 23.1797 3 16 3V5C22.0751 5 27 9.92487 27 16H29Z" fill="#05103A"/>
<path d="M21.3334 16H21.336V16.0027H21.3334V16Z" stroke="#05103A" stroke-width="3" stroke-linecap="round" stroke-linejoin="round"/>
<path d="M16 16H16.0027V16.0027H16V16Z" stroke="#05103A" stroke-width="3" stroke-linecap="round" stroke-linejoin="round"/>
<path d="M10.6666 16H10.6693V16.0027H10.6666V16Z" stroke="#05103A" stroke-width="3" stroke-linecap="round" stroke-linejoin="round"/>
</svg>
