<?xml version="1.0" encoding="utf-8"?>
<!-- Generator: Adobe Illustrator 25.2.3, SVG Export Plug-In . SVG Version: 6.00 Build 0)  -->
<svg version="1.1" id="Layer_1" xmlns="http://www.w3.org/2000/svg" xmlns:xlink="http://www.w3.org/1999/xlink" x="0px" y="0px"
	 viewBox="0 0 512 512" style="enable-background:new 0 0 512 512;" xml:space="preserve">
<style type="text/css">
	.st0{fill-rule:evenodd;clip-rule:evenodd;fill:#0C1532;}
</style>
<g id="Layer_2_1_">
	<g id="Layer_1-2">
		<path class="st0" d="M256,500.4C121,500.4,11.6,391,11.6,256S121,11.6,256,11.6S500.4,121,500.4,256l0,0
			C500.2,390.9,390.9,500.2,256,500.4z M256,22.8L256,22.8C127.2,22.8,22.8,127.3,22.8,256s104.5,233.2,233.3,233.2
			S489.2,384.8,489.2,256C489,127.3,384.7,23,256,22.8z"/>
		<path class="st0" d="M133.3,333.5l24.3,85.8l5.3,19.1c1.1,4,4.7,6.9,8.9,6.9h32l0.6-2.6l70.8-237.9c0.4-1.7,0.4-3.4,0-5.1
			L243.8,85.3c-1.1-4-4.7-6.7-8.9-6.7h-20.7c-4,0-7.6,2.7-8.7,6.5l0,0l-72,243.1l0,0C133,330,132.9,331.8,133.3,333.5z"/>
		<path class="st0" d="M51.9,97.5l39.4,109.1c0.5,2.1,2.6,3.3,4.7,2.8c1.4-0.3,2.4-1.4,2.8-2.8c1.6-6.5,3-13.2,3.7-15.6v-1
			L91.6,89.1C91.3,83.4,91.3,79,80.7,79H60.6C44,78.9,50.9,93.9,51.9,97.5z"/>
		<path class="st0" d="M313.3,325l33.4,118.4l0.4,1.8h30.9c4.4,0.1,8.4-2.8,9.5-7.1l5-16.8l0.8-2.2l84.4-274.1l11.9-39.1
			c0.3-1,0.6-2.1,1.1-3v-0.6l0,0l3.3-10.5c1.6-5.2-1.4-10.7-6.6-12.3c-1-0.3-2-0.4-2.9-0.4h-91.1c-4.4-0.2-8.4,2.8-9.6,7.1
			l-9.5,31.4c-0.2,1-0.5,1.9-0.8,2.9l-60.3,199.2C312.9,321.4,312.9,323.2,313.3,325z"/>
	</g>
</g>
</svg>
